<svg viewBox="0 0 185 93" fill="none" xmlns="http://www.w3.org/2000/svg">
<path d="M57.3249 5.006V38H49.2879V18.213L41.9089 38H35.4229L27.9969 18.166V38H19.9599V5.006H29.4539L38.7129 27.848L47.8779 5.006H57.3249ZM61.0064 24.84C61.0064 22.1453 61.5078 19.7797 62.5104 17.743C63.5444 15.7063 64.9388 14.1397 66.6934 13.043C68.4481 11.9463 70.4064 11.398 72.5684 11.398C74.4171 11.398 76.0308 11.774 77.4094 12.526C78.8194 13.278 79.9004 14.265 80.6524 15.487V11.774H88.6894V38H80.6524V34.287C79.8691 35.509 78.7724 36.496 77.3624 37.248C75.9838 38 74.3701 38.376 72.5214 38.376C70.3908 38.376 68.4481 37.8277 66.6934 36.731C64.9388 35.603 63.5444 34.0207 62.5104 31.984C61.5078 29.916 61.0064 27.5347 61.0064 24.84ZM80.6524 24.887C80.6524 22.8817 80.0884 21.2993 78.9604 20.14C77.8638 18.9807 76.5164 18.401 74.9184 18.401C73.3204 18.401 71.9574 18.9807 70.8294 20.14C69.7328 21.268 69.1844 22.8347 69.1844 24.84C69.1844 26.8453 69.7328 28.4433 70.8294 29.634C71.9574 30.7933 73.3204 31.373 74.9184 31.373C76.5164 31.373 77.8638 30.7933 78.9604 29.634C80.0884 28.4747 80.6524 26.8923 80.6524 24.887ZM102.041 16.145C102.981 14.7037 104.156 13.5757 105.566 12.761C106.976 11.915 108.543 11.492 110.266 11.492V19.999H108.057C106.052 19.999 104.548 20.4377 103.545 21.315C102.542 22.161 102.041 23.665 102.041 25.827V38H94.0038V11.774H102.041V16.145ZM117.649 9.048C116.239 9.048 115.08 8.64066 114.171 7.826C113.294 6.98 112.855 5.946 112.855 4.724C112.855 3.47067 113.294 2.43667 114.171 1.622C115.08 0.775997 116.239 0.352997 117.649 0.352997C119.028 0.352997 120.156 0.775997 121.033 1.622C121.942 2.43667 122.396 3.47067 122.396 4.724C122.396 5.946 121.942 6.98 121.033 7.826C120.156 8.64066 119.028 9.048 117.649 9.048ZM121.644 11.774V38H113.607V11.774H121.644ZM125.371 24.84C125.371 22.1453 125.872 19.7797 126.875 17.743C127.909 15.7063 129.303 14.1397 131.058 13.043C132.812 11.9463 134.771 11.398 136.933 11.398C138.781 11.398 140.395 11.774 141.774 12.526C143.184 13.278 144.265 14.265 145.017 15.487V11.774H153.054V38H145.017V34.287C144.233 35.509 143.137 36.496 141.727 37.248C140.348 38 138.734 38.376 136.886 38.376C134.755 38.376 132.812 37.8277 131.058 36.731C129.303 35.603 127.909 34.0207 126.875 31.984C125.872 29.916 125.371 27.5347 125.371 24.84ZM145.017 24.887C145.017 22.8817 144.453 21.2993 143.325 20.14C142.228 18.9807 140.881 18.401 139.283 18.401C137.685 18.401 136.322 18.9807 135.194 20.14C134.097 21.268 133.549 22.8347 133.549 24.84C133.549 26.8453 134.097 28.4433 135.194 29.634C136.322 30.7933 137.685 31.373 139.283 31.373C140.881 31.373 142.228 30.7933 143.325 29.634C144.453 28.4747 145.017 26.8923 145.017 24.887Z" fill="black"/>
<path d="M12.1196 49.41C15.4496 49.41 18.3596 50.07 20.8496 51.39C23.3396 52.71 25.2596 54.57 26.6096 56.97C27.9896 59.34 28.6796 62.085 28.6796 65.205C28.6796 68.295 27.9896 71.04 26.6096 73.44C25.2596 75.84 23.3246 77.7 20.8046 79.02C18.3146 80.34 15.4196 81 12.1196 81H0.284629V49.41H12.1196ZM11.6246 74.34C14.5346 74.34 16.7996 73.545 18.4196 71.955C20.0396 70.365 20.8496 68.115 20.8496 65.205C20.8496 62.295 20.0396 60.03 18.4196 58.41C16.7996 56.79 14.5346 55.98 11.6246 55.98H7.97963V74.34H11.6246ZM56.1499 68.04C56.1499 68.76 56.1049 69.51 56.0149 70.29H38.5999C38.7199 71.85 39.2149 73.05 40.0849 73.89C40.9849 74.7 42.0799 75.105 43.3699 75.105C45.2899 75.105 46.6249 74.295 47.3749 72.675H55.5649C55.1449 74.325 54.3799 75.81 53.2699 77.13C52.1899 78.45 50.8249 79.485 49.1749 80.235C47.5249 80.985 45.6799 81.36 43.6399 81.36C41.1799 81.36 38.9899 80.835 37.0699 79.785C35.1499 78.735 33.6499 77.235 32.5699 75.285C31.4899 73.335 30.9499 71.055 30.9499 68.445C30.9499 65.835 31.4749 63.555 32.5249 61.605C33.6049 59.655 35.1049 58.155 37.0249 57.105C38.9449 56.055 41.1499 55.53 43.6399 55.53C46.0699 55.53 48.2299 56.04 50.1199 57.06C52.0099 58.08 53.4799 59.535 54.5299 61.425C55.6099 63.315 56.1499 65.52 56.1499 68.04ZM48.2749 66.015C48.2749 64.695 47.8249 63.645 46.9249 62.865C46.0249 62.085 44.8999 61.695 43.5499 61.695C42.2599 61.695 41.1649 62.07 40.2649 62.82C39.3949 63.57 38.8549 64.635 38.6449 66.015H48.2749ZM67.4044 47.7V81H59.7094V47.7H67.4044ZM76.3509 53.28C75.0009 53.28 73.8909 52.89 73.0209 52.11C72.1809 51.3 71.7609 50.31 71.7609 49.14C71.7609 47.94 72.1809 46.95 73.0209 46.17C73.8909 45.36 75.0009 44.955 76.3509 44.955C77.6709 44.955 78.7509 45.36 79.5909 46.17C80.4609 46.95 80.8959 47.94 80.8959 49.14C80.8959 50.31 80.4609 51.3 79.5909 52.11C78.7509 52.89 77.6709 53.28 76.3509 53.28ZM80.1759 55.89V81H72.4809V55.89H80.1759ZM96.5474 73.8L101.992 55.89H110.182L101.272 81H91.7774L82.8674 55.89H91.1024L96.5474 73.8ZM136.591 68.04C136.591 68.76 136.546 69.51 136.456 70.29H119.041C119.161 71.85 119.656 73.05 120.526 73.89C121.426 74.7 122.521 75.105 123.811 75.105C125.731 75.105 127.066 74.295 127.816 72.675H136.006C135.586 74.325 134.821 75.81 133.711 77.13C132.631 78.45 131.266 79.485 129.616 80.235C127.966 80.985 126.121 81.36 124.081 81.36C121.621 81.36 119.431 80.835 117.511 79.785C115.591 78.735 114.091 77.235 113.011 75.285C111.931 73.335 111.391 71.055 111.391 68.445C111.391 65.835 111.916 63.555 112.966 61.605C114.046 59.655 115.546 58.155 117.466 57.105C119.386 56.055 121.591 55.53 124.081 55.53C126.511 55.53 128.671 56.04 130.561 57.06C132.451 58.08 133.921 59.535 134.971 61.425C136.051 63.315 136.591 65.52 136.591 68.04ZM128.716 66.015C128.716 64.695 128.266 63.645 127.366 62.865C126.466 62.085 125.341 61.695 123.991 61.695C122.701 61.695 121.606 62.07 120.706 62.82C119.836 63.57 119.296 64.635 119.086 66.015H128.716ZM147.846 60.075C148.746 58.695 149.871 57.615 151.221 56.835C152.571 56.025 154.071 55.62 155.721 55.62V63.765H153.606C151.686 63.765 150.246 64.185 149.286 65.025C148.326 65.835 147.846 67.275 147.846 69.345V81H140.151V55.89H147.846V60.075ZM184.549 55.89L168.799 92.925H160.519L166.279 80.145L156.064 55.89H164.659L170.464 71.595L176.224 55.89H184.549Z" fill="#D92457"/>
</svg>
